<svg xmlns="http://www.w3.org/2000/svg" width="627" height="623" viewBox="0 0 627 623">
  <g fill="none" fillRule="evenodd">
    <g transform="translate(-6 -243)">
      <rect width="630" height="630" fill="#F7DF1E" transform="translate(0 233)"/>
      <polygon fill="#F06050" fillRule="nonzero" points="516.506 176.071 827.151 486.716 194.973 504.624" transform="rotate(45 511.062 340.348)"/>
    </g>
    <polygon fill="#F06050" fillRule="nonzero" points="107.603 344.047 426.841 669.331 -214.082 665.731" transform="rotate(-135 106.38 506.689)"/>
    <path fill="#000" d="M369 510.476498L417.218831 482.542285C429.912143 503.283084 446.408948 518.519359 475.595313 518.519359 500.132966 518.519359 515.779548 506.244519 515.779548 489.314101 515.779548 468.998651 499.706604 461.802736 472.63329 449.955497L457.831928 443.602775C415.10578 425.406567 386.763385 402.55153 386.763385 354.301867 386.763385 309.861585 420.603464 276 473.481011 276 511.128334 276 538.200398 289.122037 557.656725 323.405219L511.548444 353.030822C501.395795 334.833363 490.400426 327.638699 473.481011 327.638699 456.137736 327.638699 445.138616 338.642744 445.138616 353.030822 445.138616 370.807935 456.137736 378.003851 481.515608 389.009147L496.31947 395.356865C546.657605 416.94336 575 438.950201 575 488.467155 575 541.798495 533.122823 571 476.864394 571 421.873796 571 386.340775 544.760931 369 510.476498M160 515.943499L208.160122 486.802926C217.451268 503.273305 225.903325 517.208147 246.176277 517.208147 265.608893 517.208147 277.860568 509.608028 277.860568 480.045239L277.860568 279 337 279 337 480.881679C337 542.124074 301.095299 570 248.711021 570 201.401223 570 173.939839 545.502293 160 515.938506"/>
  </g>
</svg>
